# xmcd
#
# Track frame offsets:
#	150
#	17006
#	29719
#	43760
#	55966
#	74047
#	94701
#	111974
#	124060
#	139972
#	154233
#	172707
#	193932
#	206738
#	224751
#	237633
#	251570
#	265920
#	281706
#	294140
#
# Disc length: 4131 seconds
#
# Revision: 1
# Processed by: cddbd v1.5.1PL2 Copyright (c) Steve Scherf et al.
# Submitted via: audiograbber 1.83.01
#
DISCID=44102114
DTITLE=Various Artist - ERG NCT 138
DYEAR=2005
DGENRE=Country
TTITLE0=Carrie Underwood - Jesus, Take The Wheel
TTITLE1=Gord Bamford - Life Is Good
TTITLE2=Montgomery Gentry - She Don't Tell Me To
TTITLE3=Merle Haggard - America First
TTITLE4=Lonestar - I'll Die Tryin'
TTITLE5=Brooks and Dunn - Believe
TTITLE6=Craig Morgan - I Got You
TTITLE7=Gretchen Wilson - I Don't Feel Like Loving You Today
TTITLE8=Wynonna - Attitude
TTITLE9=Brad Johner - I've Got It Good
TTITLE10=Brice Long - Anywhere But Here
TTITLE11=Beverly Mahood - Making It Up As You Go
TTITLE12=Hot Apple Pie - We're Makin' Up
TTITLE13=Rockie Lynne - Lipstick
TTITLE14=Diane Chase - Walin' Back To You
TTITLE15=Damian Marshall - That's What Love Is
TTITLE16=Chely Wright - C'est La Vie (You Never Can Tell)
TTITLE17=Ryan Shupe and The Rubber Band - Banjo Boy
TTITLE18=Jace Everett - Bad Things
TTITLE19=Collin Raye - I Know That's Right
EXTD=
EXTT0=
EXTT1=
EXTT2=
EXTT3=
EXTT4=
EXTT5=
EXTT6=
EXTT7=
EXTT8=
EXTT9=
EXTT10=
EXTT11=
EXTT12=
EXTT13=
EXTT14=
EXTT15=
EXTT16=
EXTT17=
EXTT18=
EXTT19=
PLAYORDER=
